<svg fill="#1060c1" version="1.1" id="Layer_1" xmlns="http://www.w3.org/2000/svg" x="0" y="0" viewBox="0 0 513.9 108.9" xml:space="preserve">
	<path d="M56.9 14.8V7c0-3.9-3.2-7-7.1-7s-7 3.2-7 7v7.7C20 18.1 2.4 37.7 2.4 61.4c0 26 21.2 47.2 47.2 47.2s47.2-21.2 47.2-47.2c-.1-23.5-17.4-43-39.9-46.6zM49.6 100C28.3 100 11 82.7 11 61.4c0-18.9 13.7-34.7 31.8-37.9v8.4c0 2.3 1.1 4.4 2.8 5.7v7.1H29.7c-1.8 0-3.5.9-4.5 2.5-.9 1.6-1 3.5-.1 5.1l20.1 38.3c.9 1.7 2.7 2.8 4.6 2.8 2 0 3.7-1.1 4.6-2.8l20.1-38.3c.8-1.6.8-3.6-.2-5.1-.9-1.5-2.6-2.5-4.4-2.5H54v-7.1c1.8-1.3 2.9-3.4 2.9-5.7v-8.4C74.7 27 88.1 42.7 88.1 61.4c0 21.3-17.3 38.6-38.5 38.6zm286.6-16.5h-15.5V64.8h13.2V48.4h-13.2V32.3h14V15.1h-35.1v85.6h36.6V83.5zM176.6 32.2h6.6v68.4h21V15.1h-48.6v85.5h21V32.2zm-28 51.4H133V64.8h13.3V48.4H133V32.1h14.3v-17h-35.6v85.5h36.9v-17zm215.6-18.7h6.5v35.8h21.1V15.2h-21.1v30.7h-6.5V15.2h-21v85.5h21V64.9zm47 35.8h21V32.3h12.6V15.2h-46.1v17.1h12.5v68.4zm-179-85.6h-21v85.5h21V15.1zm60.5 68.4h-4.5V15.1H267v68.4h-6.6V15.1h-21.2v85.4H278v8.4h14.7V83.5zm203.7-56.3c-.5-2.6-1.6-4.7-3.1-6.5-1.6-1.8-3.9-3.2-7-4.1-3.1-1-7.5-1.4-13.2-1.4h-21.3v85.5h21V66.2h5.7c4.6 0 8.4-.7 11.2-2 2.9-1.3 4.8-3.3 5.9-5.8s1.6-6.5 1.6-11.9V39c0-5.3-.3-9.3-.8-11.8zm-21.5 22.7c-6.1 0-11.1-5-11.1-11.1s5-11.1 11.1-11.1 11.1 5 11.1 11.1c0 6.2-5 11.1-11.1 11.1z"/>
    <path d="M474.9 30.4c-4.7 0-8.5 3.8-8.5 8.4 0 4.7 3.8 8.4 8.5 8.4s8.5-3.8 8.5-8.4c-.1-4.6-3.9-8.4-8.5-8.4zm1.5 14-2.4-4.6v4.6h-3.5v-11h3.5v4.7l2.3-4.7h4.1l-3 5.5 3.4 5.6-4.4-.1zM510.6 24.5l-1.1-1.8c-.2-.3-.4-.6-.7-.8.3-.1.6-.3.8-.5.4-.4.5-.9.5-1.4 0-.4-.1-.8-.3-1.2-.2-.4-.5-.6-.9-.8-.4-.1-.8-.2-1.5-.2h-3.3v7.3h1.7v-2.9h1c.1 0 .2.1.3.1.1 0 .2.1.3.3.2.2.4.5.6.9l.9 1.3.1.2h2l-.4-.5zm-2.2-4.1c-.1.1-.2.2-.3.2-.2.1-.4.1-.8.1h-1.5v-1.4h1.7c.4 0 .7.1.8.2.1.1.2.3.2.5 0 .1-.1.2-.1.4z"/>
    <path d="M512.5 21.5c0 2.9-2.4 5.3-5.3 5.3s-5.3-2.4-5.3-5.3 2.4-5.3 5.3-5.3c2.9-.1 5.3 2.3 5.3 5.3zm-5.3-6.7a6.7 6.7 0 1 0 6.7 6.7c0-3.7-3.1-6.7-6.7-6.7z"/>
</svg>