<svg xmlns="http://www.w3.org/2000/svg" width="20px" height="20px" viewBox="0 0 20 20" version="1.1">
    <title>Icons / Delivery / Mk</title>
    <g id="Icons-/-Delivery-/-Mk" stroke="none" stroke-width="1" fill="none" fill-rule="evenodd">
        <g id="Visa">
            <polygon id="Shape" points="0 0 20 0 20 20 0 20"/>
            <g id="mk_icon_30px" transform="translate(4.500000, 3.000000)">
                <g id="Icon" transform="translate(0.155564, 0.866749)">
                    <path d="M7.59023775,0.122995892 C5.71105976,0.122995892 4.1878251,1.6463432 4.1878251,3.52540855 L4.1878251,4.08996169 L7.20647228,4.08996169 C9.08553762,4.08996169 10.6088849,2.56661438 10.6088849,0.687661675 L10.6088849,0.122995892 L7.59023775,0.122995892 Z" id="Fill-2" fill="#26BDA5"/>
                    <path d="M2.0452732,6.78605417 L2.0457334,11.8480843 L0.301273204,11.8480843 L0.301273204,1.07505417 L2.0457334,1.07505417 L2.0452732,5.04105417 L4.07325866,5.04201996 L4.0722732,5.04205417 L4.2784264,5.04609877 C7.92133645,5.1722162 10.8459139,8.17505024 10.8459139,11.8480393 L9.1014537,11.8480393 C9.1014537,9.05715075 6.83073806,6.78643511 4.03984955,6.78643511 L2.0452732,6.78605417 Z" id="Combined-Shape" fill="#000"/>
                </g>
            </g>
        </g>
    </g>
</svg>