<svg viewBox="0 0 80 16" fill="none" xmlns="http://www.w3.org/2000/svg">
    <path d="M1 3.30369C1 2.30429 2.0742 1.67735 2.9377 2.17358L11.1214 6.871C11.3198 6.98479 11.4847 7.14925 11.5994 7.34773C11.7141 7.5462 11.7745 7.77162 11.7745 8.00111C11.7745 8.23061 11.7141 8.45603 11.5994 8.6545C11.4847 8.85297 11.3198 9.01744 11.1214 9.13123L2.9377 13.8286C2.7407 13.9417 2.5176 14.0008 2.29073 14C2.06386 13.9992 1.84118 13.9385 1.64497 13.8241C1.44877 13.7097 1.28592 13.5455 1.17273 13.3479C1.05954 13.1504 0.999973 12.9265 1 12.6985V3.30369ZM12.2255 3.30369C12.2255 2.30429 13.2997 1.67735 14.1632 2.17358L22.3469 6.871C22.5453 6.98479 22.7102 7.14925 22.8249 7.34773C22.9396 7.5462 23 7.77162 23 8.00111C23 8.23061 22.9396 8.45603 22.8249 8.6545C22.7102 8.85297 22.5453 9.01744 22.3469 9.13123L14.1632 13.8286C13.9662 13.9417 13.7431 14.0008 13.5163 14C13.2894 13.9992 13.0667 13.9385 12.8705 13.8241C12.6743 13.7097 12.5114 13.5455 12.3983 13.3479C12.2851 13.1504 12.2255 12.9265 12.2255 12.6985L12.2255 3.30369Z" fill="url(#paint0_linear_587_52)" stroke="url(#paint1_linear_587_52)" stroke-width="1.5" stroke-linecap="round" stroke-linejoin="round"/>
    <path d="M27.8807 11.5V4.22727H32.2415V5.00852H28.7614V7.46591H31.9148V8.24716H28.7614V11.5H27.8807ZM34.4743 4.22727V11.5H33.6362V4.22727H34.4743ZM38.2251 11.6136C37.7327 11.6136 37.3007 11.4964 36.929 11.2621C36.5597 11.0277 36.2708 10.6998 36.0625 10.2784C35.8565 9.85701 35.7536 9.36458 35.7536 8.80114C35.7536 8.23295 35.8565 7.73698 36.0625 7.31321C36.2708 6.88944 36.5597 6.56037 36.929 6.32599C37.3007 6.09162 37.7327 5.97443 38.2251 5.97443C38.7176 5.97443 39.1484 6.09162 39.5178 6.32599C39.8894 6.56037 40.1783 6.88944 40.3842 7.31321C40.5926 7.73698 40.6967 8.23295 40.6967 8.80114C40.6967 9.36458 40.5926 9.85701 40.3842 10.2784C40.1783 10.6998 39.8894 11.0277 39.5178 11.2621C39.1484 11.4964 38.7176 11.6136 38.2251 11.6136ZM38.2251 10.8608C38.5992 10.8608 38.907 10.7649 39.1484 10.5732C39.3899 10.3814 39.5687 10.1293 39.6847 9.81676C39.8007 9.50426 39.8587 9.16572 39.8587 8.80114C39.8587 8.43655 39.8007 8.09683 39.6847 7.78196C39.5687 7.46709 39.3899 7.21259 39.1484 7.01847C38.907 6.82434 38.5992 6.72727 38.2251 6.72727C37.8511 6.72727 37.5433 6.82434 37.3018 7.01847C37.0604 7.21259 36.8816 7.46709 36.7656 7.78196C36.6496 8.09683 36.5916 8.43655 36.5916 8.80114C36.5916 9.16572 36.6496 9.50426 36.7656 9.81676C36.8816 10.1293 37.0604 10.3814 37.3018 10.5732C37.5433 10.7649 37.8511 10.8608 38.2251 10.8608ZM43.0263 11.5L41.3643 6.04545H42.245L43.424 10.2216H43.4808L44.6456 6.04545H45.5405L46.6911 10.2074H46.7479L47.9268 6.04545H48.8075L47.1456 11.5H46.3217L45.1286 7.30966H45.0433L43.8501 11.5H43.0263ZM49.9155 11.5V6.04545H50.7251V6.89773H50.7962C50.9098 6.60653 51.0933 6.38045 51.3466 6.21946C51.5999 6.05611 51.9041 5.97443 52.2592 5.97443C52.6191 5.97443 52.9186 6.05611 53.1577 6.21946C53.3991 6.38045 53.5874 6.60653 53.7223 6.89773H53.7791C53.9188 6.616 54.1283 6.39228 54.4077 6.22656C54.687 6.05848 55.022 5.97443 55.4126 5.97443C55.9003 5.97443 56.2992 6.12713 56.6094 6.43253C56.9195 6.73556 57.0746 7.20786 57.0746 7.84943V11.5H56.2365V7.84943C56.2365 7.44697 56.1264 7.15933 55.9062 6.98651C55.6861 6.81368 55.4268 6.72727 55.1286 6.72727C54.745 6.72727 54.4479 6.84328 54.2372 7.07528C54.0265 7.30492 53.9212 7.59612 53.9212 7.94886V11.5H53.0689V7.7642C53.0689 7.45407 52.9683 7.20431 52.767 7.01491C52.5658 6.82315 52.3066 6.72727 51.9893 6.72727C51.7715 6.72727 51.5679 6.78527 51.3786 6.90128C51.1915 7.01728 51.04 7.17827 50.924 7.38423C50.8104 7.58783 50.7536 7.82339 50.7536 8.09091V11.5H49.9155ZM60.8938 11.6136C60.3683 11.6136 59.9149 11.4976 59.5337 11.2656C59.1549 11.0312 58.8626 10.7045 58.6566 10.2855C58.453 9.86411 58.3512 9.37405 58.3512 8.81534C58.3512 8.25663 58.453 7.7642 58.6566 7.33807C58.8626 6.90956 59.149 6.57576 59.516 6.33665C59.8853 6.09517 60.3162 5.97443 60.8086 5.97443C61.0927 5.97443 61.3732 6.02178 61.6502 6.11648C61.9272 6.21117 62.1793 6.36506 62.4066 6.57812C62.6339 6.78883 62.815 7.06818 62.9499 7.41619C63.0849 7.7642 63.1523 8.19271 63.1523 8.7017V9.05682H58.9478V8.33239H62.3001C62.3001 8.02462 62.2385 7.75 62.1154 7.50852C61.9947 7.26705 61.8219 7.07647 61.5969 6.93679C61.3744 6.79711 61.1116 6.72727 60.8086 6.72727C60.4748 6.72727 60.186 6.81013 59.9421 6.97585C59.7006 7.1392 59.5148 7.35227 59.3846 7.61506C59.2544 7.87784 59.1893 8.15956 59.1893 8.46023V8.94318C59.1893 9.35511 59.2603 9.70431 59.4023 9.99077C59.5468 10.2749 59.7468 10.4915 60.0025 10.6406C60.2582 10.7874 60.5553 10.8608 60.8938 10.8608C61.114 10.8608 61.3129 10.83 61.4904 10.7685C61.6703 10.7045 61.8254 10.6098 61.9556 10.4844C62.0858 10.3565 62.1864 10.1979 62.2575 10.0085L63.0671 10.2358C62.9819 10.5104 62.8387 10.7519 62.6374 10.9602C62.4362 11.1662 62.1876 11.3272 61.8917 11.4432C61.5958 11.5568 61.2631 11.6136 60.8938 11.6136ZM64.4272 11.5V6.04545H65.2369V6.86932H65.2937C65.3931 6.59943 65.573 6.38045 65.8335 6.21236C66.0939 6.04427 66.3874 5.96023 66.7141 5.96023C66.7757 5.96023 66.8526 5.96141 66.945 5.96378C67.0373 5.96615 67.1071 5.9697 67.1545 5.97443V6.8267C67.1261 6.8196 67.061 6.80895 66.9592 6.79474C66.8597 6.77817 66.7544 6.76989 66.6431 6.76989C66.378 6.76989 66.1412 6.82552 65.9329 6.93679C65.7269 7.04569 65.5636 7.19721 65.4428 7.39134C65.3245 7.5831 65.2653 7.80208 65.2653 8.0483V11.5H64.4272ZM70.1978 11.6136C69.6864 11.6136 69.2461 11.4929 68.8768 11.2514C68.5075 11.0099 68.2234 10.6773 68.0245 10.2536C67.8256 9.82978 67.7262 9.34564 67.7262 8.80114C67.7262 8.24716 67.828 7.75829 68.0316 7.33452C68.2376 6.90838 68.524 6.57576 68.891 6.33665C69.2603 6.09517 69.6912 5.97443 70.1836 5.97443C70.5671 5.97443 70.9128 6.04545 71.2205 6.1875C71.5283 6.32955 71.7804 6.52841 71.9769 6.78409C72.1734 7.03977 72.2953 7.33807 72.3427 7.67898H71.5046C71.4407 7.4304 71.2987 7.21023 71.0785 7.01847C70.8607 6.82434 70.5671 6.72727 70.1978 6.72727C69.8711 6.72727 69.5846 6.8125 69.3384 6.98295C69.0946 7.15104 68.904 7.38897 68.7667 7.69673C68.6317 8.00213 68.5643 8.3608 68.5643 8.77273C68.5643 9.19413 68.6306 9.56108 68.7631 9.87358C68.8981 10.1861 69.0875 10.4287 69.3313 10.6016C69.5775 10.7744 69.8664 10.8608 70.1978 10.8608C70.4156 10.8608 70.6133 10.8229 70.7908 10.7472C70.9684 10.6714 71.1187 10.5625 71.2418 10.4205C71.3649 10.2784 71.4525 10.108 71.5046 9.90909H72.3427C72.2953 10.2311 72.1781 10.5211 71.9911 10.7791C71.8065 11.0348 71.5614 11.2384 71.256 11.3899C70.953 11.5391 70.6003 11.6136 70.1978 11.6136ZM75.8548 11.6136C75.3292 11.6136 74.8758 11.4976 74.4947 11.2656C74.1159 11.0312 73.8235 10.7045 73.6175 10.2855C73.4139 9.86411 73.3121 9.37405 73.3121 8.81534C73.3121 8.25663 73.4139 7.7642 73.6175 7.33807C73.8235 6.90956 74.11 6.57576 74.4769 6.33665C74.8462 6.09517 75.2771 5.97443 75.7695 5.97443C76.0536 5.97443 76.3342 6.02178 76.6112 6.11648C76.8881 6.21117 77.1403 6.36506 77.3675 6.57812C77.5948 6.78883 77.7759 7.06818 77.9109 7.41619C78.0458 7.7642 78.1133 8.19271 78.1133 8.7017V9.05682H73.9087V8.33239H77.261C77.261 8.02462 77.1995 7.75 77.0763 7.50852C76.9556 7.26705 76.7828 7.07647 76.5579 6.93679C76.3353 6.79711 76.0726 6.72727 75.7695 6.72727C75.4357 6.72727 75.1469 6.81013 74.9031 6.97585C74.6616 7.1392 74.4757 7.35227 74.3455 7.61506C74.2153 7.87784 74.1502 8.15956 74.1502 8.46023V8.94318C74.1502 9.35511 74.2212 9.70431 74.3633 9.99077C74.5077 10.2749 74.7077 10.4915 74.9634 10.6406C75.2191 10.7874 75.5162 10.8608 75.8548 10.8608C76.0749 10.8608 76.2738 10.83 76.4513 10.7685C76.6313 10.7045 76.7863 10.6098 76.9165 10.4844C77.0468 10.3565 77.1474 10.1979 77.2184 10.0085L78.0281 10.2358C77.9428 10.5104 77.7996 10.7519 77.5984 10.9602C77.3971 11.1662 77.1486 11.3272 76.8526 11.4432C76.5567 11.5568 76.2241 11.6136 75.8548 11.6136Z" fill="white"/>
    <defs>
        <linearGradient id="paint0_linear_587_52" x1="12.0057" y1="2" x2="11.9943" y2="14" gradientUnits="userSpaceOnUse">
            <stop stop-color="#1E90FF"/>
            <stop offset="1" stop-color="#125699"/>
        </linearGradient>
        <linearGradient id="paint1_linear_587_52" x1="12" y1="2" x2="12" y2="14" gradientUnits="userSpaceOnUse">
            <stop stop-color="#1E90FF"/>
            <stop offset="1" stop-color="#125699"/>
        </linearGradient>
    </defs>
</svg>
