<svg xmlns="http://www.w3.org/2000/svg" width="88" height="25" viewBox="0 0 88 25" fill="none">
    <path d="M19.9579 0L0 0.0421078L0.0421014 20L20 19.9579L19.9579 0ZM15.5 15.5H4.5V4.5H15.5V15.5Z" fill="url(#paint0_linear_1486_14382)"/>
    <path fill="currentColor" fill-rule="evenodd" clip-rule="evenodd" d="M64.0463 8.0974C65.4835 9.45455 66.1622 11.1407 66.1622 13.1559C66.1622 15.171 65.4436 16.8572 64.0463 18.2554C62.6091 19.6126 60.8924 20.3117 58.8963 20.3117C56.8602 20.3117 55.1436 19.6126 53.7463 18.2554C52.349 16.8572 51.6304 15.171 51.6304 13.1559C51.6304 11.1407 52.349 9.45455 53.7463 8.0974C55.1835 6.69913 56.9002 6 58.8963 6C60.8924 6 62.6091 6.69913 64.0463 8.0974ZM56.461 15.6645C57.0998 16.3225 57.8982 16.6927 58.8564 16.6927C59.8145 16.6927 60.613 16.3637 61.2517 15.6645C61.8905 14.9654 62.2498 14.1429 62.2498 13.1559C62.2498 12.1688 61.9304 11.3463 61.2517 10.6883C60.613 9.98918 59.8145 9.66018 58.8564 9.66018C57.8982 9.66018 57.0998 9.98918 56.461 10.6883C55.8223 11.3463 55.463 12.1688 55.463 13.1559C55.5029 14.1429 55.8223 15.0065 56.461 15.6645ZM42.2487 6.41126V19.9005H46.1212V13.3204C46.1212 11.0996 47.4386 9.82468 49.6344 9.82468C50.0735 9.82468 50.5127 9.86581 50.9119 9.94806V6.20563C50.8367 6.19788 50.7644 6.19014 50.6946 6.18267L50.6946 6.18267C50.3938 6.15047 50.1407 6.12337 49.9138 6.12337C48.1173 6.12337 46.72 6.90476 46.1212 8.26191V6.41126H42.2487ZM26 6.41123V25H29.8725V18.0909C30.2717 19.2835 31.8287 20.1061 33.7849 20.1061C35.6214 20.1061 37.1784 19.4069 38.416 18.0909C39.6536 16.7338 40.2923 15.0476 40.2923 13.1147C40.2923 11.1818 39.6536 9.53677 38.416 8.17963C37.1784 6.82248 35.6214 6.16448 33.7849 6.16448C31.7888 6.16448 30.2717 6.98699 29.8725 8.17963V6.41123H26ZM36.3799 13.1147C36.3799 14.0606 36.0605 14.8831 35.4218 15.5411C34.7431 16.1991 33.9845 16.5281 33.0663 16.487C32.1082 16.487 31.3097 16.1991 30.631 15.5411C29.9523 14.842 29.633 14.0606 29.633 13.1147C29.633 12.1688 29.9923 11.3874 30.631 10.7294C31.3097 10.0714 32.1082 9.7424 33.0663 9.7424C33.9845 9.7424 34.783 10.0714 35.4218 10.7294C36.0605 11.3874 36.3799 12.1688 36.3799 13.1147ZM68.1984 6.41126V19.9005H71.991V12.3333C71.991 10.7706 72.9093 9.66018 74.1469 9.66018C75.3845 9.66018 76.1031 10.6472 76.1031 12.21V19.9005H79.9756V12.3333C79.9756 10.7706 80.8938 9.66018 82.1713 9.66018C83.4089 9.66018 84.1275 10.6472 84.1275 12.21V19.9005H88V11.7165C88 8.22078 86.3632 6.12337 83.369 6.12337C81.2132 6.12337 79.736 6.86364 79.0174 8.26191C78.4186 6.86364 77.2209 6.12337 75.4643 6.12337C73.9073 6.12337 72.5499 6.90476 72.0709 8.0974V6.41126H68.1984Z"/>
    <defs>
        <linearGradient id="paint0_linear_1486_14382" x1="10" y1="0" x2="10" y2="20" gradientUnits="userSpaceOnUse">
            <stop stop-color="#8E09FF"/>
            <stop offset="1" stop-color="#7B04DF"/>
        </linearGradient>
    </defs>
</svg>
